#!OML:ASF H:\Punching\Project 1\Capture day 1\Session 1\female.ASF
:FULLY-SPECIFIED
:DEGREES
938
root -0.637603 15.3951 9.44084 12.0425 -10.6062 -1.825
lowerback 0.863888 -1.72895 1.55069
upperback -5.9606 -2.27465 -0.0712909
thorax -6.74433 -1.22278 -0.786509
lowerneck -4.74303 9.95576 17.8956
upperneck 29.0456 14.0045 -8.91595
head 12.3437 7.32971 -4.5329
rclavicle 2.81902e-014 -9.54166e-015
rhumerus -4.54787 42.0838 -81.3069
rradius 115.47
rwrist 0.0165595
rhand -12.6603 4.15052
rfingers 7.12502
rthumb 13.4206 -25.3972
lclavicle 2.81902e-014 -9.54166e-015
lhumerus 8.24019 -32.7244 67.3279
lradius 86.8963
lwrist -1.86098
lhand -0.0863048 8.97911
lfingers 7.12502
lthumb 25.5077 37.2917
rfemur -7.82291 2.10739 15.2788
rtibia 24.1781
rfoot -21.5246 -17.8729
rtoes -11.888
lfemur -32.8307 -9.39023 0.576982
ltibia 19.3362
lfoot 2.84999 25.4418
ltoes 8.22746
939
root -0.717154 15.4118 9.3424 12.2197 -10.238 -1.84745
lowerback 0.800941 -1.81254 1.68157
upperback -5.95994 -2.38592 -0.137444
thorax -6.71964 -1.28719 -0.922782
lowerneck -4.80059 9.96409 17.8296
upperneck 28.652 14.0243 -9.03682
head 12.2007 7.31353 -4.55729
rclavicle 5.54706e-014 2.78299e-015
rhumerus -4.97753 41.9967 -81.6395
rradius 114.348
rwrist 0.186102
rhand -11.8653 3.57457
rfingers 7.12502
rthumb 14.1868 -25.921
lclavicle 5.54706e-014 2.78299e-015
lhumerus 7.19766 -34.0709 67.4254
lradius 86.8356
lwrist -2.30327
lhand 0.0778192 8.82638
lfingers 7.12502
lthumb 25.6649 37.1164
rfemur -8.4593 1.7935 15.7197
rtibia 24.5206
rfoot -21.4886 -17.7933
rtoes -11.7027
lfemur -32.8471 -11.0826 1.83024
ltibia 17.9815
lfoot 2.77845 27.8662
ltoes 10.8264
940
root -0.79452 15.4276 9.24694 12.394 -9.86549 -1.85135
lowerback 0.719225 -1.89619 1.79445
upperback -5.96094 -2.49868 -0.205671
thorax -6.68602 -1.3514 -1.05183
lowerneck -4.84887 9.95836 17.7709
upperneck 28.2666 14.0196 -9.14381
head 12.0559 7.28928 -4.58203
rclavicle 1.51826e-014 1.15295e-014
rhumerus -5.48483 41.8807 -81.9584
rradius 113.197
rwrist 0.327773
rhand -11.1503 3.02857
rfingers 7.12502
rthumb 14.8757 -26.4174
lclavicle 1.51826e-014 1.15295e-014
lhumerus 6.04921 -35.3392 67.6168
lradius 86.7628
lwrist -2.72497
lhand 0.219306 8.65195
lfingers 7.12502
lthumb 25.8004 36.9224
rfemur -9.09899 1.46444 16.1497
rtibia 24.885
rfoot -21.4749 -17.7733
rtoes -11.4209
lfemur -32.9444 -13.0095 3.18062
ltibia 16.7677
lfoot 2.05411 30.6059
ltoes 13.7223
941
root -0.869538 15.4421 9.15491 12.5526 -9.49608 -1.83791
lowerback 0.627771 -1.97616 1.88411
upperback -5.95995 -2.60783 -0.2746
thorax -6.64417 -1.4125 -1.1695
lowerneck -4.89436 9.93831 17.7173
upperneck 27.8995 13.9892 -9.2333
head 11.9141 7.25637 -4.60538
rclavicle 4.51148e-015 -1.55052e-014
rhumerus -6.0687 41.7246 -82.2642
rradius 112.014
rwrist 0.38268
rhand -10.483 2.53748
rfingers 7.12502
rthumb 15.5185 -26.8598
lclavicle 4.51148e-015 -1.55052e-014
lhumerus 4.7911 -36.5149 67.9208
lradius 86.6581
lwrist -3.13035
lhand 0.359263 8.44052
lfingers 7.12502
lthumb 25.9344 36.6914
rfemur -9.72565 1.16301 16.5629
rtibia 25.2692
rfoot -21.4809 -17.8194
rtoes -11.0586
lfemur -33.1146 -15.1158 4.5935
ltibia 15.735
lfoot 0.462877 33.4885
ltoes 16.9241
942
root -0.941857 15.4552 9.06633 12.6844 -9.13618 -1.80582
lowerback 0.544047 -2.05108 1.94538
upperback -5.95764 -2.7112 -0.341933
thorax -6.60423 -1.46907 -1.27002
lowerneck -4.9394 9.90571 17.6692
upperneck 27.5601 13.9378 -9.31015
head 11.7805 7.21636 -4.62859
rclavicle -5.36579e-014 -1.23246e-014
rhumerus -6.7283 41.5383 -82.5578
rradius 110.795
rwrist 0.312032
rhand -9.90716 2.04589
rfingers 7.12502
rthumb 16.073 -27.3075
lclavicle -5.36579e-014 -1.23246e-014
lhumerus 3.4124 -37.594 68.3565
lradius 86.5047
lwrist -3.52306
lhand 0.46694 8.2204
lfingers 7.12502
lthumb 26.0375 36.4561
rfemur -10.3258 0.916715 16.9481
rtibia 25.6684
rfoot -21.4981 -17.9212
rtoes -10.6554
lfemur -33.3384 -17.2486 5.97363
ltibia 14.9173
lfoot -2.06372 36.1538
ltoes 20.0945
943
root -1.0113 15.4673 8.98127 12.782 -8.79695 -1.75448
lowerback 0.471712 -2.11511 1.9788
upperback -5.94892 -2.80099 -0.412098
thorax -6.56258 -1.51736 -1.35875
lowerneck -4.99305 9.86257 17.6242
upperneck 27.2531 13.866 -9.36804
head 11.6579 7.16949 -4.64833
rclavicle -2.42486e-014 -7.55382e-015
rhumerus -7.45794 41.3124 -82.8422
rradius 109.551
rwrist 0.0996087
rhand -9.36385 1.54196
rfingers 7.12502
rthumb 16.5962 -27.7684
lclavicle -2.42486e-014 -7.55382e-015
lhumerus 1.91962 -38.5783 68.9268
lradius 86.2926
lwrist -3.91221
lhand 0.538964 8.01545
lfingers 7.12502
lthumb 26.1065 36.241
rfemur -10.8873 0.741733 17.2945
rtibia 26.071
rfoot -21.5228 -18.0572
rtoes -10.2164
lfemur -33.5582 -19.1425 7.15306
ltibia 14.335
lfoot -5.12754 38.1651
ltoes 22.8091
944
root -1.07748 15.4786 8.89949 12.8401 -8.48409 -1.67829
lowerback 0.423434 -2.16855 1.97896
upperback -5.93673 -2.87752 -0.48517
thorax -6.52918 -1.55732 -1.43209
lowerneck -5.05518 9.81328 17.5768
upperneck 26.985 13.781 -9.40392
head 11.5489 7.11874 -4.66154
rclavicle 1.24365e-014 -1.07344e-014
rhumerus -8.26445 41.0637 -83.1289
rradius 108.286
rwrist -0.250132
rhand -8.86626 0.96669
rfingers 7.12502
rthumb 17.0752 -28.3029
lclavicle 1.24365e-014 -1.07344e-014
lhumerus 0.306794 -39.4665 69.6377
lradius 86.0068
lwrist -4.28512
lhand 0.534549 7.84507
lfingers 7.12502
lthumb 26.1023 36.0713
rfemur -11.4 0.635552 17.5901
rtibia 26.4638
rfoot -21.5415 -18.2136
rtoes -9.7882
lfemur -33.693 -20.5355 7.9446
ltibia 13.9887
lfoot -7.97113 39.2393
ltoes 24.6398
945
root -1.1401 15.4898 8.82088 12.8585 -8.20585 -1.57972
lowerback 0.392559 -2.20638 1.95932
upperback -5.91384 -2.93405 -0.569603
thorax -6.49323 -1.58645 -1.50715
lowerneck -5.13978 9.76233 17.5286
upperneck 26.7577 13.6852 -9.41095
head 11.457 7.06541 -4.66487
rclavicle 3.27808e-014 1.98785e-014
rhumerus -9.14072 40.7837 -83.4267
rradius 107.004
rwrist -0.714988
rhand -8.42245 0.324445
rfingers 7.12502
rthumb 17.5023 -28.9077
lclavicle 3.27808e-014 1.98785e-014
lhumerus -1.41536 -40.2723 70.4794
lradius 85.643
lwrist -4.65194
lhand 0.405527 7.76195
lfingers 7.12502
lthumb 25.9787 36.0063
rfemur -11.8587 0.588783 17.8329
rtibia 26.8342
rfoot -21.5509 -18.3702
rtoes -9.3543
lfemur -33.6501 -21.1793 8.17888
ltibia 13.861
lfoot -9.66444 39.3162
ltoes 25.2524
